# xmcd CD database file
#
# Track frame offsets:
#	150
#	21340
#	42602
#	65079
#	92701
#	116693
#	143035
#	167768
#	193342
#	215031
#	236742
#	260537
#
# Disc length: 3800 seconds
#
# Revision: 1
# Processed by: cddbd v1.5.1PL0 Copyright (c) Steve Scherf et al.
# Submitted via: CDex 1.51
#
DISCID=be0ed60c
DTITLE=India - The Best...
DYEAR=2001
DGENRE=Salsa
TTITLE0=Ese Hombre
TTITLE1=Dicen Que Soy
TTITLE2=Nunca Voy a Olvidarte
TTITLE3=Vivir Lo Nuestro
TTITLE4=Sola
TTITLE5=Costumbres
TTITLE6=Si Tú Eres Mi Hombre
TTITLE7=Mi Primera Rumba
TTITLE8=O Ella O Yo
TTITLE9=No Me Conviene
TTITLE10=Sobre el Fuego
TTITLE11=La Voz de la Experiencia
EXTD=YEAR: 2001
EXTT0=
EXTT1=
EXTT2=
EXTT3=
EXTT4=
EXTT5=
EXTT6=
EXTT7=
EXTT8=
EXTT9=
EXTT10=
EXTT11=
PLAYORDER=
